<svg width="16" height="16" viewBox="0 0 16 16" fill="none" xmlns="http://www.w3.org/2000/svg">
<path d="M3.336 12.7988C3.50128 12.3305 3.80779 11.925 4.21328 11.6381C4.61877 11.3513 5.10327 11.1973 5.6 11.1973C6.09673 11.1973 6.58123 11.3513 6.98672 11.6381C7.39221 11.925 7.69872 12.3305 7.864 12.7988H16V14.3984H7.864C7.69872 14.8667 7.39221 15.2723 6.98672 15.5591C6.58123 15.846 6.09673 16 5.6 16C5.10327 16 4.61877 15.846 4.21328 15.5591C3.80779 15.2723 3.50128 14.8667 3.336 14.3984H0V12.7988H3.336ZM8.136 7.2002C8.30128 6.73188 8.60779 6.32636 9.01328 6.03951C9.41877 5.75267 9.90327 5.59863 10.4 5.59863C10.8967 5.59863 11.3812 5.75267 11.7867 6.03951C12.1922 6.32636 12.4987 6.73188 12.664 7.2002H16V8.7998H12.664C12.4987 9.26812 12.1922 9.67364 11.7867 9.96049C11.3812 10.2473 10.8967 10.4014 10.4 10.4014C9.90327 10.4014 9.41877 10.2473 9.01328 9.96049C8.60779 9.67364 8.30128 9.26812 8.136 8.7998H0V7.2002H8.136ZM3.336 1.60157C3.50128 1.13326 3.80779 0.727729 4.21328 0.440884C4.61877 0.154039 5.10327 0 5.6 0C6.09673 0 6.58123 0.154039 6.98672 0.440884C7.39221 0.727729 7.69872 1.13326 7.864 1.60157H16V3.20118H7.864C7.69872 3.66949 7.39221 4.07501 6.98672 4.36186C6.58123 4.6487 6.09673 4.80274 5.6 4.80274C5.10327 4.80274 4.61877 4.6487 4.21328 4.36186C3.80779 4.07501 3.50128 3.66949 3.336 3.20118H0V1.60157H3.336ZM5.6 3.20118C5.81217 3.20118 6.01566 3.11691 6.16569 2.96692C6.31571 2.81693 6.4 2.61349 6.4 2.40137C6.4 2.18925 6.31571 1.98582 6.16569 1.83583C6.01566 1.68583 5.81217 1.60157 5.6 1.60157C5.38783 1.60157 5.18434 1.68583 5.03431 1.83583C4.88429 1.98582 4.8 2.18925 4.8 2.40137C4.8 2.61349 4.88429 2.81693 5.03431 2.96692C5.18434 3.11691 5.38783 3.20118 5.6 3.20118V3.20118ZM10.4 8.7998C10.6122 8.7998 10.8157 8.71554 10.9657 8.56555C11.1157 8.41555 11.2 8.21212 11.2 8C11.2 7.78788 11.1157 7.58445 10.9657 7.43445C10.8157 7.28446 10.6122 7.2002 10.4 7.2002C10.1878 7.2002 9.98434 7.28446 9.83431 7.43445C9.68429 7.58445 9.6 7.78788 9.6 8C9.6 8.21212 9.68429 8.41555 9.83431 8.56555C9.98434 8.71554 10.1878 8.7998 10.4 8.7998V8.7998ZM5.6 14.3984C5.81217 14.3984 6.01566 14.3142 6.16569 14.1642C6.31571 14.0142 6.4 13.8107 6.4 13.5986C6.4 13.3865 6.31571 13.1831 6.16569 13.0331C6.01566 12.8831 5.81217 12.7988 5.6 12.7988C5.38783 12.7988 5.18434 12.8831 5.03431 13.0331C4.88429 13.1831 4.8 13.3865 4.8 13.5986C4.8 13.8107 4.88429 14.0142 5.03431 14.1642C5.18434 14.3142 5.38783 14.3984 5.6 14.3984V14.3984Z" fill="white"/>
</svg>
